<?xml version="1.0" standalone="no"?>
<!DOCTYPE svg PUBLIC "-//W3C//DTD SVG 20010904//EN"
 "http://www.w3.org/TR/2001/REC-SVG-20010904/DTD/svg10.dtd">
<svg version="1.0" xmlns="http://www.w3.org/2000/svg"
 width="1168.000000pt" height="863.000000pt" viewBox="0 0 1168.000000 863.000000"
 preserveAspectRatio="xMidYMid meet">
 
<g transform="translate(0.000000,863.000000) scale(0.100000,-0.100000)"
fill="#000000" stroke="none">
<path d="M6850 7151 c-498 -104 -1195 -305 -2310 -668 -1308 -425 -3575 -1235
-3823 -1366 -140 -74 -233 -177 -277 -307 l-22 -65 11 -870 c6 -478 11 -980
12 -1115 l1 -245 69 569 c38 313 70 570 72 572 1 1 239 42 528 90 l526 89 7
119 c10 191 7 1116 -3 1116 -12 0 -629 -231 -692 -259 -124 -56 -248 -239
-313 -465 -10 -32 -19 -56 -21 -54 -9 8 17 267 35 356 46 226 156 349 370 412
41 12 1312 418 2824 901 1512 484 2750 878 2752 877 1 -2 -149 -57 -334 -122
-629 -221 -1744 -615 -2447 -864 -651 -232 -700 -251 -703 -273 -3 -32 124
-1468 130 -1475 3 -3 280 38 614 90 335 53 642 101 682 107 l72 12 0 327 c0
574 14 1478 22 1420 4 -30 35 -428 69 -885 34 -456 63 -832 65 -834 2 -2 245
31 541 73 545 77 836 115 1064 137 l126 13 6 230 c4 127 8 517 8 866 1 349 4
718 8 820 l6 185 73 -980 72 -980 36 -1150 c20 -632 37 -1151 37 -1152 1 -1
225 -4 497 -7 272 -3 491 -4 485 -1 -5 2 -187 38 -404 80 -217 41 -397 78
-399 80 -3 3 -22 404 -43 892 -20 489 -40 941 -43 1006 l-7 117 29 0 c44 0
142 -28 201 -58 68 -34 183 -141 255 -236 30 -40 103 -151 162 -247 177 -288
241 -376 354 -490 l105 -107 100 -460 c55 -253 101 -459 103 -457 2 1 -2 185
-9 409 -7 223 -10 408 -8 411 3 2 21 0 40 -5 76 -23 402 -68 644 -89 365 -33
933 -43 1265 -21 274 18 627 62 809 101 l53 11 -7 62 c-10 91 -13 99 -40 92
-38 -10 -347 -44 -500 -55 -289 -22 -583 -31 -1015 -30 -365 1 -646 10 -581
17 1056 126 1572 215 2046 350 32 9 32 11 19 90 -6 38 3 37 -176 17 -432 -48
-1440 -92 -1604 -70 -58 8 -55 9 131 36 563 83 1002 165 1365 255 124 31 226
57 228 59 1 1 -5 34 -14 74 l-17 73 -46 -6 c-103 -13 -369 -36 -581 -51 -266
-17 -820 -38 -827 -31 -7 7 -3 7 302 61 436 78 1076 214 1097 234 4 4 -6 58
-23 122 l-31 115 -166 -17 c-317 -32 -939 -75 -949 -65 -7 6 64 20 589 116
263 47 481 89 484 93 9 9 -64 245 -142 460 -120 331 -277 665 -414 884 -33 53
-59 97 -58 99 4 3 190 -30 285 -51 l72 -16 52 -82 c100 -155 253 -481 354
-754 42 -112 36 -108 145 -118 80 -8 186 8 220 33 36 27 36 60 -1 170 -72 220
-160 412 -267 586 -98 160 -152 225 -214 257 -80 41 -403 118 -690 165 l-108
17 -112 112 c-156 155 -195 179 -354 216 -536 125 -1091 225 -1509 274 -175
20 -449 45 -453 41 -2 -2 19 -75 46 -162 l50 -159 49 -7 c26 -5 134 -19 238
-34 213 -28 384 -63 466 -93 118 -45 198 -167 334 -516 62 -161 135 -409 170
-584 16 -81 16 -85 -2 -110 -11 -14 -37 -35 -58 -45 -65 -32 -246 -34 -289 -3
-9 7 -31 67 -52 147 -41 157 -173 558 -233 710 -23 58 -61 143 -84 190 l-43
85 -179 27 c-225 33 -258 34 -251 11 162 -538 332 -1313 420 -1918 41 -281
106 -868 106 -964 0 -36 -12 10 -60 224 -304 1356 -629 2415 -969 3158 -17 37
-35 67 -39 66 -4 0 -90 -17 -192 -38z"/>
<path d="M2775 5483 c-159 -58 -470 -170 -690 -250 -220 -79 -403 -147 -407
-151 -6 -7 115 -1209 123 -1216 5 -5 1272 204 1279 211 3 2 7 344 8 759 3 625
1 754 -10 753 -7 -1 -143 -48 -303 -106z"/>
<path d="M5985 4139 c-517 -57 -2159 -286 -4045 -564 -432 -64 -867 -128 -967
-142 -159 -24 -183 -29 -183 -45 0 -10 6 -18 14 -18 7 0 1253 122 2767 270
1514 149 2760 270 2767 270 11 0 13 9 8 42 -11 66 -55 138 -105 170 -50 31
-97 34 -256 17z"/>
<path d="M5448 3549 c-21 -5 -64 -22 -96 -38 -243 -123 -388 -413 -410 -824
l-7 -122 -165 -7 c-91 -4 -401 -16 -690 -28 -526 -21 -1550 -64 -1817 -76
l-143 -7 0 -48 0 -49 1410 0 1410 0 0 -104 0 -104 -442 -6 c-403 -6 -1606 -21
-2253 -28 l-260 -3 -6 265 c-5 226 -9 277 -28 345 -73 273 -244 425 -479 425
-204 0 -366 -127 -443 -347 -40 -113 -49 -192 -56 -450 l-6 -253 -216 -2 -216
-3 -3 -25 c-1 -14 2 -31 6 -38 5 -7 114 -42 243 -77 179 -50 250 -65 301 -65
l67 0 37 -57 c41 -66 106 -137 148 -163 l29 -18 -44 -6 c-24 -3 -154 -8 -289
-11 -393 -9 -876 -35 -968 -51 -176 -32 457 -68 1658 -94 2099 -45 6151 -45
8240 0 1204 26 1836 62 1658 93 -149 27 -968 60 -1798 72 -206 3 -421 8 -478
11 l-103 6 41 44 c46 50 140 192 140 212 0 6 5 12 10 12 6 0 122 5 258 10 486
20 897 59 1057 100 95 24 218 85 266 130 29 27 39 46 44 85 17 108 -10 431
-63 760 -18 110 -18 110 -45 108 -42 -3 -209 -86 -254 -127 -42 -37 -103 -140
-91 -152 4 -3 41 -1 83 5 92 13 155 14 155 2 0 -11 -94 -69 -170 -105 l-55
-26 65 5 c36 3 97 8 137 11 l71 7 4 -89 c2 -49 0 -122 -3 -162 -5 -65 -9 -76
-40 -108 -84 -86 -237 -123 -654 -158 -387 -32 -744 -39 -1720 -32 -522 3
-1069 10 -1215 16 -146 5 -452 12 -680 16 l-416 7 15 76 c21 112 20 429 -3
551 -23 128 -77 287 -129 379 -83 149 -241 279 -377 310 -54 12 -170 13 -222
0z m323 -120 c143 -76 254 -264 294 -497 13 -73 11 -114 -2 -62 -4 14 -26 63
-49 110 -172 343 -506 384 -714 88 -27 -39 -64 -106 -82 -149 -17 -43 -33 -77
-35 -75 -7 7 28 177 51 245 64 187 174 315 314 368 59 22 151 10 223 -28z
m-47 -320 c105 -29 216 -212 216 -356 0 -25 -2 -23 -28 18 -32 49 -85 100
-135 126 -52 28 -160 24 -223 -9 -52 -27 -107 -81 -126 -124 -19 -40 -25 -27
-17 35 21 152 98 268 205 306 48 17 59 18 108 4z m-4157 -85 c109 -52 201
-192 248 -380 36 -140 32 -166 -10 -69 -84 192 -205 295 -346 295 -141 0 -278
-119 -349 -302 -33 -84 -43 -95 -34 -38 41 287 184 498 354 523 40 6 81 -3
137 -29z m4145 -293 c53 -63 63 -204 19 -288 -36 -72 -82 -82 -129 -29 -29 34
-52 105 -52 165 0 46 30 132 55 157 34 34 77 32 107 -5z m-4174 -5 c66 -35
119 -125 128 -219 l5 -52 -20 37 c-74 133 -248 137 -320 7 -12 -21 -25 -39
-28 -39 -2 0 -2 19 2 43 26 172 134 275 233 223z m-13 -280 c22 -33 29 -113
16 -163 -14 -52 -54 -87 -82 -72 -69 36 -70 229 -2 268 21 12 47 -1 68 -33z
m3813 -216 c59 -80 148 -150 225 -176 60 -21 164 -23 223 -4 75 25 165 92 228
170 25 31 27 32 21 10 -14 -58 -91 -193 -140 -247 -75 -83 -142 -118 -225
-117 -152 0 -284 136 -370 382 -11 28 -17 52 -16 52 2 0 26 -31 54 -70z
m-4040 -182 c77 -86 204 -113 301 -64 26 14 70 49 96 78 53 59 54 46 3 -55
-96 -191 -241 -230 -362 -97 -36 40 -97 156 -111 210 -6 24 -5 24 17 -5 13
-16 38 -47 56 -67z m6229 -115 l432 -6 44 -76 c25 -42 66 -100 93 -130 l49
-54 -589 6 c-324 4 -701 7 -838 7 l-249 0 54 69 c29 38 69 99 88 136 l34 67
225 -6 c124 -3 419 -9 657 -13z m-2356 -90 c18 -27 54 -73 80 -104 l48 -56
-692 -6 c-381 -3 -694 -4 -696 -2 -2 2 15 25 37 50 22 25 52 70 68 100 28 52
30 54 74 58 25 2 271 4 547 5 l502 2 32 -47z m-2079 -33 c22 -36 55 -81 75
-101 l35 -37 -103 -6 c-57 -3 -320 -8 -583 -10 l-480 -5 56 57 c31 31 70 81
88 109 l32 53 326 3 c180 1 369 2 421 2 l94 0 39 -65z"/>
<path d="M3490 3380 c-767 -82 -1411 -150 -1430 -152 -30 -3 -35 -7 -38 -31
l-3 -28 188 5 c103 4 370 11 593 16 955 24 1632 53 1844 81 178 23 290 102
327 231 8 28 8 28 -39 27 -26 -1 -675 -68 -1442 -149z"/>
<path d="M8303 2973 c5 -157 16 -221 42 -256 21 -28 116 -36 430 -36 l280 0
-85 33 c-239 92 -400 179 -376 203 9 10 173 -13 374 -51 94 -18 172 -29 172
-26 0 17 -64 93 -102 120 -70 51 -249 99 -548 146 -85 13 -163 24 -174 24 -17
0 -18 -8 -13 -157z"/>
<path d="M3495 2939 c-687 -59 -1251 -108 -1251 -108 -1 -1 -4 -12 -6 -25 l-5
-24 476 -6 c503 -8 1547 7 1715 24 158 16 264 76 327 184 34 60 35 66 12 65
-10 -1 -580 -50 -1268 -110z"/>
</g>
</svg>
